<?xml version="1.0" standalone="no"?>
<!DOCTYPE svg PUBLIC "-//W3C//DTD SVG 20010904//EN"
 "http://www.w3.org/TR/2001/REC-SVG-20010904/DTD/svg10.dtd">
<svg version="1.0" xmlns="http://www.w3.org/2000/svg"
 width="400.000000pt" height="400.000000pt" viewBox="0 0 400.000000 400.000000"
 preserveAspectRatio="xMidYMid meet">

<g transform="translate(0.000000,400.000000) scale(0.100000,-0.100000)"
fill="#000000" stroke="none">
<path d="M1232 3798 c-22 -22 -12 -53 34 -106 26 -29 45 -55 42 -57 -2 -2 -39
-19 -83 -38 -105 -45 -175 -87 -258 -155 -170 -138 -307 -328 -403 -559 -19
-45 -47 -102 -63 -125 -118 -176 -188 -382 -212 -625 -27 -281 34 -580 182
-878 84 -170 172 -295 304 -433 260 -271 583 -436 855 -437 114 0 146 10 194
62 l25 27 98 -18 c172 -32 244 -38 423 -32 190 5 284 21 382 62 170 71 328
224 387 374 19 47 32 61 131 143 234 195 329 370 330 610 0 54 -5 118 -11 142
-11 42 -9 46 26 104 95 154 99 404 11 718 -56 200 -119 284 -156 206 -25 -54
-31 -90 -40 -228 -14 -204 -68 -360 -187 -545 -111 -172 -292 -319 -488 -396
-119 -47 -446 -105 -470 -83 -5 6 4 23 26 47 19 20 47 53 61 72 14 19 36 46
49 61 33 34 101 115 195 229 43 52 81 97 84 100 3 3 49 57 100 120 52 63 100
120 106 125 6 6 42 48 80 95 38 47 77 94 87 105 46 49 77 94 69 99 -9 6 -4 12
-132 -144 -52 -63 -97 -117 -101 -120 -3 -3 -39 -45 -80 -95 -40 -49 -78 -95
-83 -101 -6 -6 -29 -33 -51 -60 -22 -27 -56 -66 -76 -89 -19 -22 -69 -80 -109
-130 -41 -49 -77 -92 -80 -95 -3 -3 -48 -56 -99 -117 -60 -73 -99 -113 -112
-113 -51 0 -224 32 -271 51 -75 29 -86 41 -56 65 13 11 27 27 31 37 4 10 11
16 16 12 12 -7 25 31 16 45 -4 6 0 22 9 35 9 13 16 32 16 42 0 10 7 27 15 37
8 11 15 27 15 36 0 9 6 24 13 34 13 18 15 18 35 -4 11 -12 27 -20 35 -17 20 7
138 -163 127 -184 -11 -21 6 -59 28 -59 10 0 34 19 52 42 32 39 33 42 19 67
-10 17 -22 25 -35 23 -18 -2 -46 31 -66 81 -7 15 -5 16 15 6 12 -7 46 -32 75
-57 52 -44 53 -44 73 -26 44 40 44 51 -5 123 -59 89 -68 111 -50 136 8 10 14
27 14 37 0 16 4 15 25 -8 42 -46 68 -93 62 -116 -8 -28 9 -58 31 -58 15 0 93
85 150 162 10 14 5 26 -34 83 -25 36 -51 64 -58 62 -20 -6 -18 -52 4 -76 26
-31 25 -42 -6 -72 l-26 -24 -24 30 c-13 17 -24 33 -24 38 0 12 17 8 30 -8 7
-8 16 -12 21 -9 15 9 10 34 -16 72 -25 36 -34 68 -16 57 18 -10 40 35 31 61
-8 19 -5 26 11 34 21 12 30 5 127 -103 23 -26 47 -47 53 -47 15 0 48 42 49 60
0 8 -16 46 -35 84 -20 38 -34 70 -32 73 2 2 25 -21 51 -52 26 -30 53 -55 59
-55 7 0 22 14 34 31 l21 31 -64 131 c-46 95 -63 142 -62 168 1 20 -2 41 -6 47
-4 7 -2 12 3 12 6 0 11 -7 11 -15 0 -22 74 -95 96 -95 10 1 30 7 44 15 40 23
69 19 76 -11 9 -35 -18 -64 -44 -46 -31 22 -44 25 -53 11 -15 -24 -10 -47 22
-93 34 -51 56 -58 65 -21 3 14 10 25 16 25 5 0 20 11 33 25 46 45 27 174 -31
212 -28 18 -85 11 -104 -12 -18 -22 -39 -18 -51 9 -20 44 26 91 49 49 12 -21
42 -10 42 15 0 10 -9 27 -20 37 -16 15 -20 15 -15 3 7 -17 -21 -33 -30 -17 -4
5 -11 7 -16 4 -5 -4 -9 1 -9 10 0 11 -6 14 -25 9 -23 -6 -25 -3 -25 24 0 28
46 108 93 159 40 45 6 36 -41 -10 -26 -26 -51 -47 -55 -47 -4 0 -7 15 -7 33 0
17 -7 45 -15 61 -8 15 -15 36 -15 46 0 27 -11 51 -20 45 -4 -3 -21 30 -36 73
-73 202 -197 340 -388 432 -146 70 -237 91 -446 101 -102 5 -205 13 -230 18
-71 14 -222 50 -260 61 -45 13 -63 13 -78 -2z m952 -503 c139 -42 230 -107
277 -198 23 -43 45 -143 54 -237 10 -113 32 -117 92 -20 58 92 68 78 32 -44
-28 -94 -80 -193 -155 -293 -48 -63 -63 -92 -68 -130 -18 -123 -83 -248 -156
-302 -19 -14 -29 -19 -22 -11 6 8 12 23 12 35 -1 15 -6 10 -21 -17 -11 -21
-24 -38 -29 -38 -6 0 -10 26 -10 58 -1 47 -3 53 -12 37 -19 -36 -132 -146
-169 -165 -20 -11 -39 -27 -43 -36 -15 -40 -180 -274 -192 -274 -8 0 -48 32
-89 71 -80 77 -149 177 -190 278 -31 75 -67 223 -52 214 6 -4 0 11 -13 32 -21
35 -24 52 -26 164 -7 329 87 590 276 764 103 96 200 135 334 136 69 1 109 -5
170 -24z m516 -832 c35 -62 33 -79 -5 -37 -40 45 -67 93 -60 104 10 16 29 -4
65 -67z m-80 -120 c11 -25 19 -47 17 -50 -8 -7 -67 84 -67 103 0 26 25 0 50
-53z m-340 -408 c7 -9 8 -15 2 -15 -5 0 -12 7 -16 15 -3 8 -4 15 -2 15 2 0 9
-7 16 -15z"/>
<path d="M2004 2892 c-35 -23 -65 -77 -63 -119 1 -26 2 -25 8 7 15 73 67 120
133 120 40 0 95 -32 108 -63 5 -14 9 -16 9 -6 1 8 -12 28 -29 44 -39 38 -120
46 -166 17z"/>
<path d="M2038 2854 c-75 -40 -58 -149 26 -170 39 -9 94 29 102 71 8 46 -3 73
-39 96 -38 23 -53 23 -89 3z m52 -64 c0 -13 -7 -20 -20 -20 -19 0 -27 20 -13
33 13 14 33 6 33 -13z"/>
<path d="M1950 2736 c0 -5 9 -24 20 -42 40 -64 151 -72 203 -14 15 16 27 36
27 43 -1 6 -7 0 -16 -15 -26 -50 -98 -71 -158 -49 -13 6 -36 27 -50 48 -14 21
-26 34 -26 29z"/>
<path d="M2340 2418 c0 -19 18 -43 25 -36 9 9 -4 48 -16 48 -5 0 -9 -6 -9 -12z"/>
<path d="M2235 2373 c-10 -41 -7 -181 4 -201 8 -12 10 18 11 106 0 67 -2 122
-4 122 -2 0 -7 -12 -11 -27z"/>
<path d="M2183 2220 c0 -30 2 -43 4 -27 2 15 2 39 0 55 -2 15 -4 2 -4 -28z"/>
<path d="M1620 2066 c0 -2 7 -7 16 -10 8 -3 12 -2 9 4 -6 10 -25 14 -25 6z"/>
<path d="M1883 1953 c9 -2 25 -2 35 0 9 3 1 5 -18 5 -19 0 -27 -2 -17 -5z"/>
<path d="M2937 3393 c-20 -5 -18 -19 20 -131 32 -96 69 -178 84 -187 9 -6 10
8 5 56 -4 35 -11 68 -15 74 -5 5 -12 37 -16 69 -10 84 -30 130 -55 125 -3 -1
-13 -3 -23 -6z"/>
<path d="M3045 3280 c-4 -12 7 -55 26 -107 l33 -86 -27 -23 c-15 -13 -27 -27
-27 -31 0 -10 66 -111 92 -139 l19 -21 46 46 46 46 -12 43 c-15 58 -98 226
-128 263 -29 34 -59 38 -68 9z"/>
</g>
</svg>
